<svg width="500" height="500" viewBox="0 0 500 500" fill="none" xmlns="http://www.w3.org/2000/svg">
<circle cx="250" cy="250" r="250" fill="#2980B9"/>
<path d="M70.2451 336.003C61.0188 336.003 52.6617 333.73 45.1737 329.183C37.8194 324.637 32.0028 318.085 27.724 309.527C23.4451 300.836 21.3057 290.607 21.3057 278.84C21.3057 258.515 25.6514 239.729 34.3428 222.479C43.0343 205.097 55.8708 191.19 72.8525 180.761C89.8343 170.197 110.226 164.915 134.027 164.915C140.178 164.915 146.73 165.383 153.683 166.319C160.77 167.255 167.188 168.659 172.938 170.531C176.682 171.601 178.554 174.275 178.554 178.554C178.554 182.031 177.217 185.307 174.542 188.382C172.002 191.458 168.993 192.995 165.517 192.995C164.447 192.995 163.645 192.929 163.11 192.795C156.157 191.19 150.206 190.054 145.259 189.385C140.311 188.583 135.097 188.182 129.614 188.182C112.633 188.182 98.1914 192.327 86.2908 200.617C74.3903 208.774 65.4983 219.605 59.6148 233.11C53.7314 246.615 50.7897 261.19 50.7897 276.834C50.7897 288.2 52.996 297.025 57.4085 303.31C61.9548 309.461 67.8383 312.536 75.0588 312.536C83.2154 312.536 90.3691 309.193 96.52 302.507C102.671 295.822 108.287 284.991 113.368 270.015C118.449 255.039 123.463 234.714 128.411 209.041C129.213 205.297 130.818 202.757 133.225 201.419C135.631 200.082 138.841 199.414 142.852 199.414C152.346 199.414 157.093 202.489 157.093 208.64C157.093 209.71 156.892 211.047 156.491 212.651C153.014 225.622 149.805 239.996 146.863 255.774C144.055 271.419 142.651 283.319 142.651 291.476C142.651 298.697 143.721 303.978 145.861 307.321C148 310.53 151.276 312.135 155.689 312.135C159.967 312.135 164.046 310.731 167.923 307.923C171.801 304.981 176.682 300.034 182.565 293.081C184.17 291.209 185.975 290.273 187.981 290.273C189.719 290.273 191.056 291.075 191.992 292.679C193.062 294.284 193.597 296.49 193.597 299.298C193.597 304.513 192.326 308.658 189.786 311.734C183.234 319.623 176.815 325.64 170.531 329.785C164.246 333.93 156.558 336.003 147.465 336.003C138.105 336.003 130.55 333.329 124.801 327.98C119.051 322.498 115.441 314.809 113.97 304.914C104.075 325.64 89.5 336.003 70.2451 336.003ZM227.921 336.003C218.695 336.003 210.337 333.73 202.849 329.183C195.495 324.637 189.679 318.085 185.4 309.527C181.121 300.836 178.981 290.607 178.981 278.84C178.981 258.515 183.327 239.729 192.019 222.479C200.71 205.097 213.547 191.19 230.528 180.761C247.51 170.197 267.901 164.915 291.703 164.915C297.853 164.915 304.405 165.383 311.359 166.319C318.445 167.255 324.864 168.659 330.613 170.531C334.357 171.601 336.229 174.275 336.229 178.554C336.229 182.031 334.892 185.307 332.218 188.382C329.677 191.458 326.669 192.995 323.192 192.995C322.123 192.995 321.32 192.929 320.785 192.795C313.832 191.19 307.882 190.054 302.935 189.385C297.987 188.583 292.772 188.182 287.29 188.182C270.308 188.182 255.867 192.327 243.967 200.617C232.066 208.774 223.174 219.605 217.291 233.11C211.407 246.615 208.465 261.19 208.465 276.834C208.465 288.2 210.672 297.025 215.084 303.31C219.631 309.461 225.514 312.536 232.735 312.536C240.891 312.536 248.045 309.193 254.196 302.507C260.347 295.822 265.963 284.991 271.044 270.015C276.125 255.039 281.139 234.714 286.087 209.041C286.889 205.297 288.493 202.757 290.9 201.419C293.307 200.082 296.516 199.414 300.528 199.414C310.021 199.414 314.768 202.489 314.768 208.64C314.768 209.71 314.568 211.047 314.167 212.651C310.69 225.622 307.481 239.996 304.539 255.774C301.731 271.419 300.327 283.319 300.327 291.476C300.327 298.697 301.397 303.978 303.536 307.321C305.676 310.53 308.952 312.135 313.364 312.135C317.643 312.135 321.721 310.731 325.599 307.923C329.477 304.981 334.357 300.034 340.241 293.081C341.845 291.209 343.651 290.273 345.656 290.273C347.395 290.273 348.732 291.075 349.668 292.679C350.737 294.284 351.272 296.49 351.272 299.298C351.272 304.513 350.002 308.658 347.461 311.734C340.909 319.623 334.491 325.64 328.207 329.785C321.922 333.93 314.233 336.003 305.141 336.003C295.781 336.003 288.226 333.329 282.476 327.98C276.727 322.498 273.116 314.809 271.645 304.914C261.751 325.64 247.176 336.003 227.921 336.003ZM416.284 336.003C400.372 336.003 386.533 333.128 374.766 327.378C362.999 321.495 353.973 313.205 347.689 302.507C341.404 291.81 338.262 279.375 338.262 265.201C338.262 245.545 341.939 228.095 349.293 212.852C356.781 197.609 366.877 185.842 379.58 177.551C392.282 169.127 406.389 164.915 421.9 164.915C436.341 164.915 447.306 168.659 454.794 176.147C462.282 183.502 466.026 193.263 466.026 205.431C466.026 213.587 464.555 220.139 461.613 225.087C458.805 230.034 454.727 232.508 449.378 232.508C445.634 232.508 442.693 231.639 440.553 229.901C438.414 228.162 437.344 225.622 437.344 222.279C437.344 221.075 437.612 218.869 438.146 215.66C438.949 211.649 439.35 208.439 439.35 206.033C439.35 193.865 432.865 187.781 419.894 187.781C411.069 187.781 402.645 190.655 394.622 196.405C386.6 202.155 380.114 210.646 375.167 221.878C370.22 232.976 367.746 246.214 367.746 261.591C367.746 277.637 372.225 290.072 381.184 298.897C390.143 307.589 403.381 311.934 420.897 311.934C429.589 311.934 438.347 310.865 447.172 308.725C456.131 306.452 466.026 303.042 476.857 298.496C478.862 297.694 480.534 297.293 481.871 297.293C484.01 297.293 485.615 298.095 486.685 299.699C487.754 301.304 488.289 303.377 488.289 305.917C488.289 314.074 483.877 320.091 475.052 323.969C465.558 328.114 455.663 331.189 445.367 333.195C435.205 335.067 425.51 336.003 416.284 336.003Z" fill="white"/>
</svg>
